<svg xmlns="http://www.w3.org/2000/svg" viewBox="0 12.550000190734863 227.89999389648438 38.54999923706055" data-asc="1.006" width="227.89999389648438" height="38.54999923706055"><defs/><g fill="#ffffff"><g transform="translate(0, 0)"><path d="M27.25 51.10L7.30 24.30Q6.85 23.70 6.43 23.12Q6 22.55 5.55 21.95L5.50 21.95L5.65 43.35Q5.65 44.60 5.65 45.85Q5.65 47.10 5.55 48.30Q6.45 48.25 7.35 48.20Q8.25 48.15 9.15 48.10L9.15 50.30L0 50.30L0 48.65Q1.55 48.65 2.23 47.97Q2.90 47.30 3.10 46.38Q3.30 45.45 3.30 44.70L3.35 20.65Q3.35 19.80 3.35 18.95Q3.35 18.10 3.35 17.30Q2.55 17.35 1.70 17.40Q0.85 17.45 0 17.50L0 15.30L5.95 15.30L24.70 40.40Q25.35 41.25 25.98 42.10Q26.60 42.95 27.25 43.80L27.30 43.80L27.35 20.90Q27.35 19.90 27.40 18.97Q27.45 18.05 27.50 17.30Q26.60 17.35 25.70 17.40Q24.80 17.45 23.90 17.50L23.90 15.30L33.10 15.30L33.10 16.95Q31.25 17.00 30.55 17.80Q29.85 18.60 29.80 19.95Q29.75 21.30 29.75 23.10L29.65 51.10L27.25 51.10ZM48 51.10Q45.30 51.10 43.48 50.10Q41.65 49.10 40.73 46.70Q39.80 44.30 39.80 40.20L39.80 31.30Q39.80 30.50 39.83 29.70Q39.85 28.90 40 28.05Q39.15 28.10 38.27 28.12Q37.40 28.15 36.55 28.20L36.55 26.15L38.10 26.15Q40.25 26.15 41.23 25.72Q42.20 25.30 42.75 24.80L44.20 24.80L44.20 40.05Q44.20 44.35 45.42 46.47Q46.65 48.60 49.60 48.55Q51.50 48.50 53.23 47.38Q54.95 46.25 56 44.70L56 31.85Q56 30.65 56.05 29.77Q56.10 28.90 56.25 28.05Q55.35 28.10 54.45 28.12Q53.55 28.15 52.65 28.20L52.65 26.15L54.20 26.15Q56.35 26.15 57.33 25.72Q58.30 25.30 58.85 24.80L60.30 24.80L60.25 43.70Q60.25 44.50 60.20 45.95Q60.15 47.40 60.05 48.40Q60.95 48.35 61.85 48.30Q62.75 48.25 63.65 48.20L63.65 50.30L56.50 50.30Q56.35 49.45 56.28 48.70Q56.20 47.95 56.15 47.30Q54.60 48.85 52.40 49.97Q50.20 51.10 48 51.10M54.20 19.75Q53.20 19.75 52.45 18.90Q51.70 18.05 51.70 16.80Q51.70 15.55 52.48 14.67Q53.25 13.80 54.20 13.80Q55.30 13.80 56 14.67Q56.70 15.55 56.70 16.80Q56.70 18.05 55.95 18.90Q55.20 19.75 54.20 19.75M45.85 19.75Q44.85 19.75 44.10 18.90Q43.35 18.05 43.35 16.80Q43.35 15.55 44.13 14.67Q44.90 13.80 45.85 13.80Q46.95 13.80 47.65 14.67Q48.35 15.55 48.35 16.80Q48.35 18.05 47.60 18.90Q46.85 19.75 45.85 19.75ZM82.50 50.30Q82.35 49.45 82.30 48.80Q82.25 48.15 82.15 47.45Q80.45 49.15 78.47 50.13Q76.50 51.10 74.30 51.10Q70.50 51.10 68.65 49.38Q66.80 47.65 66.80 45.15Q66.80 42.85 68.22 41.17Q69.65 39.50 71.92 38.42Q74.20 37.35 76.88 36.82Q79.55 36.30 82.05 36.35L82.05 33.25Q82.05 31.50 81.75 29.95Q81.45 28.40 80.45 27.40Q79.45 26.40 77.25 26.35Q75.80 26.30 74.27 26.90Q72.75 27.50 72.05 28.95Q72.45 29.35 72.57 29.87Q72.70 30.40 72.70 30.85Q72.70 31.45 72.20 32.22Q71.70 33 70.45 32.95Q69.40 32.95 68.85 32.22Q68.30 31.50 68.30 30.50Q68.30 28.80 69.57 27.45Q70.85 26.10 73.10 25.30Q75.35 24.50 78.20 24.50Q82.40 24.50 84.40 26.72Q86.40 28.95 86.35 33.75Q86.35 35.60 86.35 37.47Q86.35 39.35 86.32 41.22Q86.30 43.10 86.30 45Q86.30 45.80 86.25 46.60Q86.20 47.40 86.10 48.40Q87 48.35 87.88 48.30Q88.75 48.25 89.65 48.20L89.65 50.30L82.50 50.30M82.05 38.05Q80.35 38.10 78.47 38.47Q76.60 38.85 75.02 39.60Q73.45 40.35 72.47 41.57Q71.50 42.80 71.55 44.55Q71.65 46.40 72.77 47.32Q73.90 48.25 75.45 48.25Q77.50 48.25 79.02 47.47Q80.55 46.70 82.05 45.30Q82 44.75 82 44.10Q82 43.45 82 42.75Q82 42.50 82.02 41.15Q82.05 39.80 82.05 38.05ZM106.80 50.30L106.80 48.65Q108.70 48.55 109.40 47.77Q110.10 47 110.17 45.63Q110.25 44.25 110.25 42.50L110.25 20.90Q110.25 19.90 110.30 18.97Q110.35 18.05 110.40 17.30Q109.50 17.35 108.60 17.40Q107.70 17.45 106.80 17.50L106.80 15.30Q109.60 15.25 112.47 15.20Q115.35 15.15 118.25 15.25Q123.10 15.30 126.08 16.37Q129.05 17.45 130.45 19.42Q131.85 21.40 131.85 24.20Q131.90 26.15 131.13 28.17Q130.35 30.20 128.32 31.80Q126.30 33.40 122.50 34.20Q123.50 34.90 124.25 36Q125 37.10 125.95 38.55L129.35 43.90Q130.20 45.25 131 46.32Q131.80 47.40 132.85 48.02Q133.90 48.65 135.45 48.65L135.45 50.30L129.15 50.30Q127.70 49 126.72 47.70Q125.75 46.40 124.70 44.75L121.35 39.40Q120.70 38.35 119.88 36.97Q119.05 35.60 118 34.65Q117.20 34.70 116.33 34.70Q115.45 34.70 114.60 34.65L114.60 44.35Q114.60 45.70 114.58 46.67Q114.55 47.65 114.45 48.30Q115.05 48.25 115.65 48.22Q116.25 48.20 116.85 48.15Q117.45 48.10 118.05 48.10L118.05 50.30L106.80 50.30M117.70 32.80Q120.45 32.70 122.53 31.90Q124.60 31.10 125.80 29.35Q127 27.60 127 24.75Q127 22.85 126.47 21.42Q125.95 20.00 124.85 19.05Q123.75 18.10 122.05 17.62Q120.35 17.15 118.05 17.15Q116.20 17.15 115.47 17.90Q114.75 18.65 114.67 19.97Q114.60 21.30 114.60 23.10L114.60 32.70Q115.40 32.75 116.13 32.80Q116.85 32.85 117.70 32.80ZM149.75 51.10Q146.30 51.10 143.52 49.47Q140.75 47.85 139.15 44.88Q137.55 41.90 137.55 37.85Q137.55 34.35 139.13 31.30Q140.70 28.25 143.55 26.37Q146.40 24.50 150.15 24.50Q152.25 24.50 154.07 25.17Q155.90 25.85 157.30 27.22Q158.70 28.60 159.50 30.67Q160.30 32.75 160.30 35.55L142.70 35.85Q142.70 39.65 143.52 42.52Q144.35 45.40 146.20 46.97Q148.05 48.55 150.95 48.55Q152.50 48.55 154.13 48Q155.75 47.45 157.15 46.50Q158.55 45.55 159.40 44.40L160.60 45.40Q159.25 47.50 157.35 48.75Q155.45 50 153.45 50.55Q151.45 51.10 149.75 51.10M142.85 33.75L155.60 33.75Q155.60 31.95 155.07 30.27Q154.55 28.60 153.35 27.52Q152.15 26.45 150.20 26.45Q147.30 26.45 145.38 28.17Q143.45 29.90 142.85 33.75ZM164.25 48.80Q165.80 48.80 166.40 48.02Q167.00 47.25 167.10 45.88Q167.20 44.50 167.20 42.70L167.20 19.05Q167.20 18.25 167.22 17.52Q167.25 16.80 167.35 15.80Q166.45 15.85 165.57 15.90Q164.70 15.95 163.80 16.00L163.80 13.90Q166.00 13.90 167.22 13.70Q168.45 13.50 169.07 13.20Q169.70 12.90 170.05 12.55L171.50 12.55L171.55 45Q171.55 46 171.50 46.77Q171.45 47.55 171.30 48.40Q172.10 48.35 172.87 48.32Q173.65 48.30 174.45 48.25L174.45 50.30L164.25 50.30L164.25 48.80ZM193.55 50.30Q193.40 49.45 193.35 48.80Q193.30 48.15 193.20 47.45Q191.50 49.15 189.52 50.13Q187.55 51.10 185.35 51.10Q181.55 51.10 179.70 49.38Q177.85 47.65 177.85 45.15Q177.85 42.85 179.27 41.17Q180.70 39.50 182.97 38.42Q185.25 37.35 187.92 36.82Q190.60 36.30 193.10 36.35L193.10 33.25Q193.10 31.50 192.80 29.95Q192.50 28.40 191.50 27.40Q190.50 26.40 188.30 26.35Q186.85 26.30 185.32 26.90Q183.80 27.50 183.10 28.95Q183.50 29.35 183.62 29.87Q183.75 30.40 183.75 30.85Q183.75 31.45 183.25 32.22Q182.75 33 181.50 32.95Q180.45 32.95 179.90 32.22Q179.35 31.50 179.35 30.50Q179.35 28.80 180.62 27.45Q181.90 26.10 184.15 25.30Q186.40 24.50 189.25 24.50Q193.45 24.50 195.45 26.72Q197.45 28.95 197.40 33.75Q197.40 35.60 197.40 37.47Q197.40 39.35 197.37 41.22Q197.35 43.10 197.35 45Q197.35 45.80 197.30 46.60Q197.25 47.40 197.15 48.40Q198.05 48.35 198.92 48.30Q199.80 48.25 200.70 48.20L200.70 50.30L193.55 50.30M193.10 38.05Q191.40 38.10 189.52 38.47Q187.65 38.85 186.07 39.60Q184.50 40.35 183.52 41.57Q182.55 42.80 182.60 44.55Q182.70 46.40 183.82 47.32Q184.95 48.25 186.50 48.25Q188.55 48.25 190.07 47.47Q191.60 46.70 193.10 45.30Q193.05 44.75 193.05 44.10Q193.05 43.45 193.05 42.75Q193.05 42.50 193.07 41.15Q193.10 39.80 193.10 38.05ZM203.15 50.30L203.15 48.80Q204.70 48.40 205.60 47.47Q206.50 46.55 207.90 44.75L212.90 38.25Q212.20 37.30 211.20 35.97Q210.20 34.65 209.32 33.42Q208.45 32.20 207.95 31.60Q206.75 30.00 206.20 28.95Q205.65 27.90 205.40 27.25L203.05 27.35L203.05 25.30L213.35 25.30L213.35 26.80Q211.10 26.85 210.82 27.82Q210.55 28.80 212.40 31.35L215.30 35.30L219.85 29.80Q220.60 28.90 221.10 28.27Q221.60 27.65 222.10 27.15L218.65 27.35L218.65 25.30L226.85 25.30L226.85 26.80Q225.50 27.20 224.55 27.82Q223.60 28.45 222.67 29.47Q221.75 30.50 220.40 32.15L216.55 36.75L223.45 45.30Q224 46.05 224.55 46.75Q225.10 47.45 225.65 48.40L227.90 48.25L227.90 50.30L218.25 50.30L218.25 48.80Q219.45 48.80 219.97 48.22Q220.50 47.65 219.45 46.35L214.20 39.85L210 45.60Q209.25 46.60 208.85 47.10Q208.45 47.60 207.70 48.40L211.55 48.25L211.55 50.30L203.15 50.30Z"/></g></g></svg>