<svg width="514" height="88" viewBox="0 0 514 88" fill="none" xmlns="http://www.w3.org/2000/svg">
<path d="M71.75 87.625C70.4167 87.625 69.0417 86.6667 67.625 84.75L19.125 16V69.375C19.125 75.0417 19.4167 78.9167 20 81C20.1667 81.3333 20.875 81.75 22.125 82.25C23.4583 82.6667 24.875 83.0417 26.375 83.375C27.875 83.625 28.875 83.75 29.375 83.75C29.625 83.75 29.75 84.25 29.75 85.25C29.8333 86.25 29.7917 86.9583 29.625 87.375C25.4583 87.2083 22.1667 87.0833 19.75 87C17.4167 86.8333 15.9167 86.75 15.25 86.75L0.875 87.375C0.625 87.125 0.5 86.5 0.5 85.5C0.5 84.3333 0.625 83.75 0.875 83.75C1.70833 83.75 2.875 83.625 4.375 83.375C5.875 83.0417 7.29167 82.6667 8.625 82.25C9.95833 81.75 10.7083 81.25 10.875 80.75C11.7083 78.75 12.125 74.8333 12.125 69V19.875C12.125 15.625 11.8333 12.5 11.25 10.5C11.0833 10 10.3333 9.58333 9 9.25C7.75 8.83333 6.375 8.5 4.875 8.25C3.375 8 2.20833 7.875 1.375 7.875C1.04167 7.875 0.875 7.33333 0.875 6.25C0.875 5.25 1.04167 4.58333 1.375 4.25C4.625 4.33333 7.29167 4.41667 9.375 4.5C11.5417 4.5 13.125 4.5 14.125 4.5C16.2917 4.5 18.2083 4.5 19.875 4.5C21.5417 4.41667 22.9583 4.33333 24.125 4.25C25.7083 7.08333 30 13.625 37 23.875C44.0833 34.0417 53.9167 47.9167 66.5 65.5C66.75 64.0833 66.875 62.375 66.875 60.375V21.5C66.875 16.25 66.5833 12.5833 66 10.5C65.8333 10 65.0833 9.54167 63.75 9.125C62.4167 8.70833 61 8.375 59.5 8.125C58 7.79167 56.875 7.625 56.125 7.625C55.7917 7.625 55.625 7.125 55.625 6.125C55.625 5.20833 55.7917 4.58333 56.125 4.25C56.875 4.25 58.125 4.33333 59.875 4.5C61.625 4.58333 63.5 4.70833 65.5 4.875C67.5833 4.95833 69.375 5 70.875 5C73.0417 5 75.7917 4.875 79.125 4.625C82.375 4.375 84.2917 4.25 84.875 4.25C85.0417 4.91667 85.125 5.54167 85.125 6.125C85.125 7.125 84.9583 7.625 84.625 7.625C84.125 7.625 83.0833 7.79167 81.5 8.125C79.9167 8.45833 78.4167 8.83333 77 9.25C75.6667 9.66667 74.9167 10.0833 74.75 10.5C74.4167 11.8333 74.1667 13.4583 74 15.375C73.8333 17.2917 73.75 19.5417 73.75 22.125V69.625C73.75 74.7917 73.875 80.625 74.125 87.125C73.7917 87.4583 73 87.625 71.75 87.625ZM134 88C133.333 88 133 87.3333 133 86V79.625C133 79.2083 132.917 79 132.75 79C127.25 84.9167 121.792 87.875 116.375 87.875C112.458 87.875 109.333 86.75 107 84.5C104.75 82.1667 103.125 79.25 102.125 75.75C101.208 72.1667 100.75 68.4583 100.75 64.625V48.875C100.75 45.7083 100.167 43.4583 99 42.125C98.1667 41.125 97.1667 40.4583 96 40.125C94.9167 39.7917 93.9167 39.625 93 39.625C92.1667 39.5417 91.75 39.4167 91.75 39.25C91.75 37.25 92 36.2083 92.5 36.125C96.9167 35.4583 100.458 34.875 103.125 34.375C105.875 33.7917 107.458 33.4583 107.875 33.375L110.375 32.75C110.708 32.6667 110.917 33 111 33.75C111.083 34.5 111.083 35.0417 111 35.375C110.5 39.375 110.25 42.4583 110.25 44.625V61.5C110.25 67.9167 111.208 72.6667 113.125 75.75C115.042 78.75 118.167 80.25 122.5 80.25C124.167 80.25 125.792 79.7917 127.375 78.875C129.042 77.9583 130.375 76.875 131.375 75.625C132.458 74.2917 133 73.1667 133 72.25V48.875C133 45.7083 132.417 43.4583 131.25 42.125C130.417 41.125 129.417 40.4583 128.25 40.125C127.167 39.7917 126.167 39.5833 125.25 39.5C124.417 39.4167 124 39.3333 124 39.25C124 37.25 124.25 36.2083 124.75 36.125C129.167 35.4583 132.458 34.9167 134.625 34.5C136.875 34.0833 138.667 33.7083 140 33.375L142.625 32.75C142.958 32.6667 143.167 33 143.25 33.75C143.333 34.5 143.333 35.0417 143.25 35.375C142.75 39.375 142.5 42.375 142.5 44.375V69.375C142.5 73.125 142.792 76.2917 143.375 78.875C143.625 79.7083 144.292 80.25 145.375 80.5C146.458 80.6667 147.708 80.8333 149.125 81L150.75 81.125C151 81.2083 151.125 81.6667 151.125 82.5C151.125 82.75 151 83.1667 150.75 83.75C150.583 84.25 150.375 84.5 150.125 84.5C147.625 84.6667 144.875 85.125 141.875 85.875C138.875 86.5417 136.625 87.1667 135.125 87.75L134 88ZM131.75 24C130.167 24 128.75 23.4167 127.5 22.25C126.333 21 125.75 19.5833 125.75 18C125.75 16.3333 126.333 14.9167 127.5 13.75C128.75 12.5833 130.167 12 131.75 12C133.417 12 134.833 12.5833 136 13.75C137.25 14.9167 137.875 16.3333 137.875 18C137.875 19.5833 137.25 21 136 22.25C134.833 23.4167 133.417 24 131.75 24ZM109.125 24C107.542 24 106.125 23.4167 104.875 22.25C103.625 21 103 19.5833 103 18C103 16.3333 103.625 14.9167 104.875 13.75C106.125 12.5833 107.542 12 109.125 12C110.792 12 112.208 12.5833 113.375 13.75C114.542 14.9167 115.125 16.3333 115.125 18C115.125 19.5833 114.542 21 113.375 22.25C112.208 23.4167 110.792 24 109.125 24ZM170.875 87.875C167.042 87.875 163.875 86.875 161.375 84.875C158.875 82.7917 157.625 79.7083 157.625 75.625C157.625 70.625 160.875 66.4583 167.375 63.125C170.208 61.7083 173 60.5833 175.75 59.75C178.583 58.9167 181.417 57.9583 184.25 56.875C185 56.625 185.375 56 185.375 55V45.625C185.375 42.9583 184.542 40.9167 182.875 39.5C181.208 38 179.208 37.25 176.875 37.25C174.375 37.25 172.292 38.125 170.625 39.875C168.958 41.5417 168.125 43.75 168.125 46.5C168.125 49.4167 166.417 50.875 163 50.875C160.583 50.875 158.958 50.0833 158.125 48.5C158.125 46.75 158.833 44.9583 160.25 43.125C161.75 41.2083 163.667 39.4583 166 37.875C168.333 36.2917 170.875 35 173.625 34C176.458 33 179.25 32.5 182 32.5C186.583 32.5 189.875 33.625 191.875 35.875C193.875 38.0417 194.875 41.5833 194.875 46.5V75.375C194.875 77.125 195.333 78.5833 196.25 79.75C197.167 80.9167 198.417 81.5 200 81.5C201.083 81.5 202.542 80.9167 204.375 79.75C204.708 79.75 204.875 80.0833 204.875 80.75C204.875 81.8333 204.667 82.7083 204.25 83.375C200.833 86.2917 197.917 87.75 195.5 87.75C193.583 87.75 191.75 86.9583 190 85.375C188.25 83.7917 187.042 82.125 186.375 80.375C185.958 80.7083 185.417 81.1667 184.75 81.75C184.167 82.25 183.667 82.6667 183.25 83C181.5 84.3333 179.583 85.5 177.5 86.5C175.5 87.4167 173.292 87.875 170.875 87.875ZM175.625 80.75C177.958 80.75 180.167 80.0833 182.25 78.75C184.333 77.4167 185.375 76 185.375 74.5V61.625C183.208 62.4583 181.125 63.2083 179.125 63.875C177.208 64.5417 175.667 65.0833 174.5 65.5C173 66.0833 171.542 67.125 170.125 68.625C168.792 70.125 168.125 71.8333 168.125 73.75C168.125 76.25 168.875 78.0417 170.375 79.125C171.958 80.2083 173.708 80.75 175.625 80.75ZM314.25 87.625C302.667 87.625 292.542 81.625 283.875 69.625C283.208 68.7083 282.333 67.4583 281.25 65.875C280.25 64.2917 278.375 61.5 275.625 57.5C274.292 55.5833 273.083 54 272 52.75C271 51.4167 269.792 50.4167 268.375 49.75C267.042 49.0833 265.208 48.75 262.875 48.75C261.958 48.75 261.208 48.875 260.625 49.125C260.125 49.375 259.875 49.9583 259.875 50.875V69.25C259.875 74.75 260.208 78.375 260.875 80.125C261.208 80.7917 262 81.4167 263.25 82C264.583 82.5833 266 83.0417 267.5 83.375C269 83.625 270.083 83.75 270.75 83.75C271.083 83.75 271.25 84.3333 271.25 85.5C271.25 86.0833 271.167 86.7083 271 87.375C266.833 87.2083 263.375 87.0417 260.625 86.875C257.958 86.7083 256 86.6667 254.75 86.75L239.5 87.375C239.25 87.125 239.125 86.375 239.125 85.125C239.125 84.0417 239.25 83.5 239.5 83.5C240.333 83.5 241.333 83.375 242.5 83.125C243.75 82.875 244.917 82.5833 246 82.25C247.167 81.8333 247.875 81.375 248.125 80.875C248.708 79.9583 249 76.0417 249 69.125V21.875C249 19.4583 248.917 17.3333 248.75 15.5C248.667 13.6667 248.458 12.2083 248.125 11.125C247.958 10.625 247.292 10.1667 246.125 9.75C245.042 9.33333 243.833 9 242.5 8.75C241.25 8.5 240.25 8.375 239.5 8.375C239.167 8.375 239 7.875 239 6.875C239 5.79167 239.167 5.08333 239.5 4.75L254.5 5C256.917 5.08333 259.875 5.04167 263.375 4.875C266.875 4.625 269.792 4.5 272.125 4.5C276.625 4.5 280.917 5.375 285 7.125C289.167 8.875 292.542 11.4583 295.125 14.875C297.792 18.2917 299.125 22.4583 299.125 27.375C299.125 30.875 297.792 34.5417 295.125 38.375C292.542 42.2083 289 45.1667 284.5 47.25C283.667 47.5833 283.417 48 283.75 48.5C287.833 57.1667 292.625 64.5 298.125 70.5C306.125 79.25 312.625 83.625 317.625 83.625C317.875 84.125 318 84.7083 318 85.375C318 86.125 317.875 86.75 317.625 87.25C316.792 87.5 315.667 87.625 314.25 87.625ZM270.75 43.375H273.875C275.875 43.375 277.917 42.7083 280 41.375C282.167 40.0417 283.958 38.1667 285.375 35.75C286.875 33.3333 287.625 30.5417 287.625 27.375C287.625 15.7917 281.792 10 270.125 10C266.292 10 263.375 10.2917 261.375 10.875C260.625 11.0417 260.167 12.4167 260 15C259.917 17.5 259.875 20.7083 259.875 24.625V39.75C259.875 42.1667 263.5 43.375 270.75 43.375ZM346.625 87.75C342.042 87.75 337.833 86.5417 334 84.125C330.167 81.7083 327.083 78.5 324.75 74.5C322.5 70.4167 321.375 65.875 321.375 60.875C321.375 55.0417 322.458 50 324.625 45.75C326.792 41.5 329.75 38.25 333.5 36C337.25 33.6667 341.458 32.5 346.125 32.5C349.958 32.5 353.333 33.25 356.25 34.75C359.167 36.1667 361.417 38 363 40.25C364.5 42.5833 365.583 44.9583 366.25 47.375C367 49.7083 367.375 52.0417 367.375 54.375C367.375 56.0417 367.125 57.0833 366.625 57.5C366.125 57.8333 365.167 58 363.75 58H332.25C331.583 58 331.25 58.2083 331.25 58.625C331.25 62.125 331.958 65.5 333.375 68.75C334.792 71.9167 336.875 74.5417 339.625 76.625C342.375 78.7083 345.75 79.75 349.75 79.75C353.25 79.75 356.167 79.25 358.5 78.25C360.917 77.1667 362.667 76.2083 363.75 75.375L364.625 74.75C365.125 74.75 365.375 75.2917 365.375 76.375C365.375 76.9583 365.125 77.7083 364.625 78.625C362.958 80.9583 360.5 83.0833 357.25 85C354 86.8333 350.458 87.75 346.625 87.75ZM332.25 52.75H356.625C357.042 52.75 357.25 52.3333 357.25 51.5C357.25 49.6667 356.75 47.6667 355.75 45.5C354.833 43.25 353.417 41.2917 351.5 39.625C349.583 37.9583 347.167 37.125 344.25 37.125C341.583 37.125 339.292 38.0417 337.375 39.875C335.458 41.625 334 43.6667 333 46C332 48.25 331.5 50.2083 331.5 51.875C331.5 52.4583 331.75 52.75 332.25 52.75ZM372.875 87.375C372.542 87.0417 372.375 86.3333 372.375 85.25C372.375 84.25 372.542 83.75 372.875 83.75C373.542 83.75 374.458 83.625 375.625 83.375C376.792 83.125 377.875 82.7917 378.875 82.375C379.875 81.9583 380.417 81.5833 380.5 81.25C380.833 80.0833 381.042 78.75 381.125 77.25C381.292 75.75 381.375 74.1667 381.375 72.5V18.375C381.375 15.5417 381.125 12.875 380.625 10.375C380.292 9.04167 378.167 8.375 374.25 8.375H373.125C372.625 8.375 372.375 7.91667 372.375 7C372.375 5.66667 372.625 5 373.125 5C378.125 4.41667 381.833 3.75 384.25 3C386.667 2.25 388.333 1.58333 389.25 1L390.5 0.25H390.75C391.083 0.25 391.417 0.5 391.75 1C392.083 1.41667 392.292 1.83333 392.375 2.25C391.458 5 391 8.625 391 13.125V70.125C391 72.5417 391.083 74.6667 391.25 76.5C391.417 78.3333 391.667 79.9167 392 81.25C392.167 81.5833 392.75 81.9583 393.75 82.375C394.75 82.7917 395.833 83.125 397 83.375C398.167 83.625 399 83.75 399.5 83.75C399.75 83.75 399.917 84.25 400 85.25C400.083 86.25 400.042 86.9583 399.875 87.375L386.5 86.75L372.875 87.375ZM420 87.875C416.167 87.875 413 86.875 410.5 84.875C408 82.7917 406.75 79.7083 406.75 75.625C406.75 70.625 410 66.4583 416.5 63.125C419.333 61.7083 422.125 60.5833 424.875 59.75C427.708 58.9167 430.542 57.9583 433.375 56.875C434.125 56.625 434.5 56 434.5 55V45.625C434.5 42.9583 433.667 40.9167 432 39.5C430.333 38 428.333 37.25 426 37.25C423.5 37.25 421.417 38.125 419.75 39.875C418.083 41.5417 417.25 43.75 417.25 46.5C417.25 49.4167 415.542 50.875 412.125 50.875C409.708 50.875 408.083 50.0833 407.25 48.5C407.25 46.75 407.958 44.9583 409.375 43.125C410.875 41.2083 412.792 39.4583 415.125 37.875C417.458 36.2917 420 35 422.75 34C425.583 33 428.375 32.5 431.125 32.5C435.708 32.5 439 33.625 441 35.875C443 38.0417 444 41.5833 444 46.5V75.375C444 77.125 444.458 78.5833 445.375 79.75C446.292 80.9167 447.542 81.5 449.125 81.5C450.208 81.5 451.667 80.9167 453.5 79.75C453.833 79.75 454 80.0833 454 80.75C454 81.8333 453.792 82.7083 453.375 83.375C449.958 86.2917 447.042 87.75 444.625 87.75C442.708 87.75 440.875 86.9583 439.125 85.375C437.375 83.7917 436.167 82.125 435.5 80.375C435.083 80.7083 434.542 81.1667 433.875 81.75C433.292 82.25 432.792 82.6667 432.375 83C430.625 84.3333 428.708 85.5 426.625 86.5C424.625 87.4167 422.417 87.875 420 87.875ZM424.75 80.75C427.083 80.75 429.292 80.0833 431.375 78.75C433.458 77.4167 434.5 76 434.5 74.5V61.625C432.333 62.4583 430.25 63.2083 428.25 63.875C426.333 64.5417 424.792 65.0833 423.625 65.5C422.125 66.0833 420.667 67.125 419.25 68.625C417.917 70.125 417.25 71.8333 417.25 73.75C417.25 76.25 418 78.0417 419.5 79.125C421.083 80.2083 422.833 80.75 424.75 80.75ZM455.5 87.375C455.417 87.0417 455.333 86.75 455.25 86.5C455.25 86.1667 455.25 85.875 455.25 85.625C455.25 84.375 455.417 83.75 455.75 83.75C461.417 82.8333 465.167 81.0833 467 78.5L479.625 61.625C479.958 61.0417 480.125 60.6667 480.125 60.5C480.125 60.1667 480 59.8333 479.75 59.5L467 40.75C466.5 40 465.625 39.2917 464.375 38.625C463.125 37.9583 461.792 37.4167 460.375 37C458.958 36.5833 457.75 36.375 456.75 36.375C456.5 35.7083 456.375 35.125 456.375 34.625C456.375 33.875 456.542 33.25 456.875 32.75L469.375 33.375L482.5 32.75C482.583 33 482.625 33.5 482.625 34.25C482.625 35.6667 482.5 36.375 482.25 36.375C478.917 36.375 477.25 37.0833 477.25 38.5C477.25 38.8333 477.458 39.3333 477.875 40L486 52.625C487.167 50.7083 488.208 49.0833 489.125 47.75C490.125 46.4167 490.917 45.3333 491.5 44.5C492.167 43.5 492.792 42.4167 493.375 41.25C493.958 40.0833 494.25 39.2083 494.25 38.625C494.25 37.7917 493.792 37.25 492.875 37C491.958 36.75 490.958 36.625 489.875 36.625C488.792 36.5417 488 36.4583 487.5 36.375C487.25 36.2083 487.125 35.5417 487.125 34.375C487.125 33.625 487.25 33.0833 487.5 32.75L500.625 33.375L512 32.75C512.083 33.1667 512.125 33.5417 512.125 33.875C512.208 34.125 512.25 34.3333 512.25 34.5C512.25 35.75 512.125 36.375 511.875 36.375C506.292 37.0417 502.667 38.4583 501 40.625L489.5 55.625C489 56.2083 488.75 56.75 488.75 57.25C488.75 57.75 488.917 58.2083 489.25 58.625L502.5 78.25C504.667 81.5 508.167 83.3333 513 83.75C513.25 83.75 513.375 84.3333 513.375 85.5C513.375 86.4167 513.208 87.0417 512.875 87.375L501.125 86.75L487.25 87.375C487.167 86.9583 487.083 86.625 487 86.375C487 86.0417 487 85.8333 487 85.75C487 84.4167 487.125 83.75 487.375 83.75C490.875 83.5 492.625 82.75 492.625 81.5C492.625 81.25 492.542 81 492.375 80.75L482.875 65.75L474.25 78.625C473.667 79.4583 473.375 80.25 473.375 81C473.375 81.75 474 82.4167 475.25 83C476.5 83.5 477.958 83.75 479.625 83.75H480.25C480.5 83.75 480.625 84.375 480.625 85.625C480.625 86.4583 480.458 87.0417 480.125 87.375L467.625 86.75L455.5 87.375Z" fill="white"/>
</svg>
