<svg xmlns="http://www.w3.org/2000/svg" width="129" height="23" fill="none">
  <path fill="#fff" d="M18.438 22.156c-.334 0-.678-.24-1.032-.718L5.281 4.25v13.344c0 1.416.073 2.385.219 2.906.042.083.219.188.531.313.334.104.688.197 1.063.28.375.063.625.095.75.095.062 0 .093.125.093.375.021.25.01.427-.03.53A467.59 467.59 0 0 0 5.436 22a21.078 21.078 0 0 0-1.125-.063l-3.593.157c-.063-.063-.094-.219-.094-.469 0-.292.031-.438.094-.438.208 0 .5-.03.875-.093.375-.084.729-.177 1.062-.282.334-.125.521-.25.563-.375.208-.5.312-1.479.312-2.937V5.219c0-1.063-.073-1.844-.219-2.344-.041-.125-.229-.23-.562-.313a6.798 6.798 0 0 0-1.031-.25 5.699 5.699 0 0 0-.875-.093c-.084 0-.125-.136-.125-.406 0-.25.041-.417.125-.5.812.02 1.479.041 2 .062h2.625c.416-.02.77-.042 1.062-.063C6.927 2.022 8 3.656 9.75 6.22c1.77 2.541 4.23 6.01 7.375 10.406a7.5 7.5 0 0 0 .094-1.281V5.625c0-1.313-.073-2.23-.219-2.75-.042-.125-.23-.24-.563-.344a7.93 7.93 0 0 0-1.062-.25c-.375-.083-.656-.125-.844-.125-.083 0-.125-.125-.125-.375 0-.229.042-.385.125-.468.188 0 .5.02.938.062.437.02.906.052 1.406.094.52.02.969.031 1.344.031.541 0 1.229-.031 2.062-.094a32.025 32.025 0 0 1 1.438-.093c.041.166.062.322.062.468 0 .25-.041.375-.125.375-.125 0-.385.042-.781.125-.396.084-.77.177-1.125.281-.333.105-.52.209-.563.313-.083.333-.145.74-.187 1.219-.042.479-.063 1.041-.063 1.687v11.875c0 1.292.032 2.75.094 4.375-.083.084-.281.125-.593.125ZM34 22.25c-.167 0-.25-.167-.25-.5v-1.594c0-.104-.02-.156-.063-.156-1.374 1.48-2.74 2.219-4.093 2.219-.98 0-1.76-.282-2.344-.844-.563-.583-.969-1.313-1.219-2.188a11.181 11.181 0 0 1-.343-2.78v-3.938c0-.792-.146-1.354-.438-1.688a1.5 1.5 0 0 0-.75-.5 2.565 2.565 0 0 0-.75-.125c-.208-.02-.313-.052-.313-.094 0-.5.063-.76.188-.78a79.317 79.317 0 0 0 2.656-.438c.688-.146 1.084-.23 1.188-.25l.625-.156c.083-.021.135.062.156.25.02.187.02.322 0 .406-.125 1-.188 1.77-.188 2.312v4.219c0 1.604.24 2.792.72 3.563.478.75 1.26 1.125 2.343 1.125.417 0 .823-.115 1.219-.344.416-.23.75-.5 1-.813.27-.333.406-.614.406-.843v-5.844c0-.792-.146-1.354-.438-1.688a1.5 1.5 0 0 0-.75-.5 3.712 3.712 0 0 0-.75-.156c-.208-.02-.312-.042-.312-.063 0-.5.063-.76.188-.78a68.282 68.282 0 0 0 2.468-.407c.563-.104 1.01-.198 1.344-.281l.656-.156c.084-.021.136.062.157.25.02.187.02.322 0 .406-.126 1-.188 1.75-.188 2.25v6.25c0 .937.073 1.729.219 2.375.062.208.229.343.5.406.27.042.583.083.937.125l.407.031c.062.021.093.136.093.344 0 .063-.031.167-.093.313-.042.125-.094.187-.157.187-.625.042-1.312.156-2.062.344-.75.166-1.313.323-1.688.468L34 22.25Zm-.563-16c-.395 0-.75-.146-1.062-.438-.292-.312-.438-.666-.438-1.062 0-.417.146-.77.438-1.063.313-.291.667-.437 1.063-.437.416 0 .77.146 1.062.438a1.4 1.4 0 0 1 .469 1.062c0 .396-.157.75-.469 1.063a1.447 1.447 0 0 1-1.063.437Zm-5.656 0c-.396 0-.75-.146-1.062-.438-.313-.312-.469-.666-.469-1.062 0-.417.156-.77.469-1.063.312-.291.666-.437 1.062-.437.417 0 .771.146 1.063.438.291.291.437.645.437 1.062 0 .396-.146.75-.437 1.063a1.447 1.447 0 0 1-1.063.437ZM43.22 22.219c-.959 0-1.75-.25-2.375-.75-.625-.521-.938-1.292-.938-2.313 0-1.25.813-2.291 2.438-3.125a13.342 13.342 0 0 1 2.093-.843 28.341 28.341 0 0 0 2.126-.72c.187-.062.28-.218.28-.468v-2.344c0-.666-.208-1.177-.624-1.531a2.165 2.165 0 0 0-1.5-.563c-.625 0-1.146.22-1.563.657-.416.416-.625.969-.625 1.656 0 .73-.427 1.094-1.281 1.094-.604 0-1.01-.198-1.219-.594 0-.438.177-.885.532-1.344.374-.479.854-.916 1.437-1.312a8.635 8.635 0 0 1 1.906-.969A6.264 6.264 0 0 1 46 8.375c1.146 0 1.969.281 2.469.844.5.541.75 1.427.75 2.656v7.219c0 .437.114.802.343 1.093.23.292.542.438.938.438.27 0 .635-.146 1.094-.438.083 0 .125.084.125.25 0 .271-.052.49-.157.657-.854.729-1.583 1.093-2.187 1.093-.48 0-.938-.197-1.375-.593-.438-.396-.74-.813-.906-1.25-.104.083-.24.198-.407.343-.145.125-.27.23-.374.313a8.267 8.267 0 0 1-1.438.875c-.5.23-1.052.344-1.656.344Zm1.187-1.782c.584 0 1.136-.166 1.657-.5.52-.333.78-.687.78-1.062v-3.219c-.54.209-1.062.396-1.562.563-.479.166-.864.302-1.156.406-.375.146-.74.406-1.094.781-.333.375-.5.802-.5 1.282 0 .625.188 1.072.563 1.343.396.271.833.407 1.312.407Zm34.657 1.72c-2.896 0-5.428-1.5-7.594-4.5-.167-.23-.386-.542-.656-.938a76.252 76.252 0 0 0-1.407-2.094c-.333-.48-.635-.875-.906-1.188a2.405 2.405 0 0 0-.906-.75c-.334-.166-.792-.25-1.375-.25-.23 0-.417.032-.563.094-.125.063-.187.209-.187.438v4.594c0 1.375.083 2.28.25 2.718.083.167.281.323.594.469.333.146.687.26 1.062.344.375.062.646.093.813.093.083 0 .124.146.124.438 0 .146-.02.302-.062.469a131.272 131.272 0 0 1-2.594-.125c-.666-.042-1.156-.052-1.469-.032l-3.812.157c-.063-.063-.094-.25-.094-.563 0-.27.032-.406.094-.406.208 0 .458-.031.75-.094.313-.062.604-.135.875-.218.292-.105.469-.22.531-.344.146-.23.219-1.209.219-2.938V5.72c0-.604-.02-1.136-.063-1.594-.02-.458-.072-.823-.156-1.094-.041-.125-.208-.24-.5-.344a5.19 5.19 0 0 0-.906-.25 4.033 4.033 0 0 0-.75-.093c-.083 0-.125-.125-.125-.375 0-.271.042-.448.125-.532l3.75.063c.604.02 1.344.01 2.219-.031a31.672 31.672 0 0 1 2.187-.094c1.125 0 2.198.219 3.219.656 1.042.438 1.885 1.084 2.531 1.938.667.854 1 1.896 1 3.125 0 .875-.333 1.791-1 2.75-.646.958-1.531 1.698-2.656 2.219-.208.083-.27.187-.188.312 1.021 2.167 2.22 4 3.594 5.5 2 2.188 3.625 3.281 4.875 3.281.063.125.094.271.094.438 0 .187-.031.343-.094.468-.208.063-.49.094-.844.094ZM68.186 11.093h.782c.5 0 1.01-.167 1.531-.5.542-.334.99-.802 1.344-1.406.375-.605.562-1.303.562-2.094 0-2.896-1.458-4.344-4.375-4.344-.958 0-1.687.073-2.187.219-.188.041-.302.385-.344 1.031-.02.625-.031 1.427-.031 2.406v3.782c0 .604.906.906 2.719.906Zm18.97 11.094A5.801 5.801 0 0 1 84 21.28a6.917 6.917 0 0 1-2.313-2.406c-.562-1.02-.843-2.156-.843-3.406 0-1.459.27-2.719.812-3.781.542-1.063 1.281-1.876 2.219-2.438.938-.583 1.99-.875 3.156-.875.959 0 1.802.188 2.531.563.73.354 1.292.812 1.688 1.374a6.48 6.48 0 0 1 .813 1.782 5.69 5.69 0 0 1 .28 1.75c0 .416-.062.677-.187.781-.125.083-.364.125-.719.125h-7.874c-.167 0-.25.052-.25.156 0 .875.177 1.719.53 2.531a4.983 4.983 0 0 0 1.563 1.97c.688.52 1.531.78 2.531.78.876 0 1.605-.125 2.188-.375.604-.27 1.042-.51 1.313-.718l.218-.157c.125 0 .188.136.188.407 0 .146-.063.333-.188.562-.416.584-1.031 1.115-1.844 1.594a5.315 5.315 0 0 1-2.656.688Zm-3.594-8.75h6.093c.104 0 .156-.105.156-.313 0-.458-.124-.958-.374-1.5a3.857 3.857 0 0 0-1.063-1.469c-.48-.416-1.083-.625-1.813-.625a2.4 2.4 0 0 0-1.718.688c-.48.437-.844.948-1.094 1.531-.25.563-.375 1.052-.375 1.469 0 .146.063.219.188.219Zm10.156 8.656c-.084-.084-.125-.26-.125-.532 0-.25.041-.375.125-.375.166 0 .396-.03.687-.093.292-.063.563-.146.813-.25.25-.104.385-.198.406-.282.083-.291.135-.625.156-1 .042-.375.063-.77.063-1.187V4.844c0-.709-.063-1.375-.188-2-.083-.334-.614-.5-1.594-.5h-.28c-.126 0-.188-.115-.188-.344 0-.333.062-.5.187-.5 1.25-.146 2.177-.313 2.781-.5.605-.188 1.021-.354 1.25-.5l.313-.188h.063c.083 0 .166.063.25.188a.737.737 0 0 1 .156.313c-.23.687-.344 1.593-.344 2.718v14.25c0 .604.02 1.136.063 1.594.041.458.104.854.187 1.188.042.083.188.177.438.28.25.105.52.188.812.25.292.063.5.095.625.095.063 0 .104.125.125.375.021.25.01.427-.031.53l-3.344-.155-3.406.156Zm11.781.125c-.958 0-1.75-.25-2.375-.75-.625-.521-.937-1.292-.937-2.313 0-1.25.812-2.291 2.437-3.125a13.314 13.314 0 0 1 2.094-.843 28.495 28.495 0 0 0 2.125-.72c.187-.062.281-.218.281-.468v-2.344c0-.666-.208-1.177-.625-1.531a2.166 2.166 0 0 0-1.5-.563c-.625 0-1.146.22-1.562.657-.417.416-.626.969-.626 1.656 0 .73-.427 1.094-1.281 1.094-.604 0-1.01-.198-1.219-.594 0-.438.178-.885.532-1.344.375-.479.854-.916 1.437-1.312a8.643 8.643 0 0 1 1.907-.969 6.26 6.26 0 0 1 2.093-.375c1.146 0 1.969.281 2.469.844.5.541.75 1.427.75 2.656v7.219c0 .437.115.802.344 1.093.229.292.541.438.937.438.271 0 .636-.146 1.094-.438.083 0 .125.084.125.25 0 .271-.052.49-.156.657-.854.729-1.584 1.093-2.188 1.093-.479 0-.937-.197-1.375-.593-.437-.396-.739-.813-.906-1.25-.104.083-.24.198-.406.343-.146.125-.271.23-.375.313a8.283 8.283 0 0 1-1.438.875c-.5.23-1.052.344-1.656.344Zm1.188-1.782c.583 0 1.135-.166 1.656-.5.521-.333.781-.687.781-1.062v-3.219a36.76 36.76 0 0 1-1.563.563c-.479.166-.864.302-1.156.406-.375.146-.739.406-1.094.781-.333.375-.5.802-.5 1.282 0 .625.188 1.072.563 1.343.396.271.833.407 1.313.407Zm7.687 1.657a2.976 2.976 0 0 0-.063-.219v-.219c0-.312.042-.468.126-.468 1.416-.23 2.354-.667 2.812-1.313l3.156-4.219c.084-.146.125-.24.125-.281a.418.418 0 0 0-.093-.25l-3.188-4.688c-.125-.187-.344-.364-.656-.53a5.309 5.309 0 0 0-1-.407 3.3 3.3 0 0 0-.906-.156 1.263 1.263 0 0 1-.094-.438c0-.187.041-.344.125-.469l3.125.157 3.281-.156c.021.062.031.187.031.374 0 .355-.031.532-.094.532-.833 0-1.25.177-1.25.531 0 .083.053.208.157.375L122 13.406c.292-.479.552-.885.781-1.219.25-.333.448-.604.594-.812.167-.25.323-.52.469-.813.146-.291.218-.51.218-.656 0-.208-.114-.344-.343-.406a2.842 2.842 0 0 0-.75-.094 7.528 7.528 0 0 1-.594-.062c-.063-.042-.094-.209-.094-.5 0-.188.031-.323.094-.406l3.281.156 2.844-.156c.021.104.031.197.031.28a.508.508 0 0 1 .031.157c0 .313-.031.469-.093.469-1.396.166-2.302.52-2.719 1.062l-2.875 3.75c-.125.146-.187.281-.187.406 0 .126.041.24.124.344l3.313 4.906c.542.813 1.417 1.271 2.625 1.375.062 0 .094.146.094.438 0 .23-.042.385-.125.469l-2.938-.157-3.469.157a1.979 1.979 0 0 0-.062-.25v-.157c0-.333.031-.5.094-.5.875-.062 1.312-.25 1.312-.562a.34.34 0 0 0-.062-.188l-2.375-3.75-2.157 3.22c-.145.208-.218.405-.218.593 0 .188.156.354.468.5.313.125.678.188 1.094.188h.156c.063 0 .094.156.094.468 0 .209-.041.354-.125.438l-3.125-.157-3.031.157Z"/>
</svg>
