<svg xmlns="http://www.w3.org/2000/svg" width="514" height="88" fill="none"><path fill="#fff" d="M71.75 87.625c-1.333 0-2.708-.958-4.125-2.875L19.125 16v53.375c0 5.667.292 9.542.875 11.625.167.333.875.75 2.125 1.25 1.333.417 2.75.792 4.25 1.125 1.5.25 2.5.375 3 .375.25 0 .375.5.375 1.5.083 1 .042 1.708-.125 2.125-4.167-.167-7.458-.292-9.875-.375-2.333-.167-3.833-.25-4.5-.25l-14.375.625C.625 87.125.5 86.5.5 85.5c0-1.167.125-1.75.375-1.75.833 0 2-.125 3.5-.375 1.5-.333 2.917-.708 4.25-1.125 1.333-.5 2.083-1 2.25-1.5.833-2 1.25-5.917 1.25-11.75V19.875c0-4.25-.292-7.375-.875-9.375-.167-.5-.917-.917-2.25-1.25a27.194 27.194 0 0 0-4.125-1c-1.5-.25-2.667-.375-3.5-.375-.333 0-.5-.542-.5-1.625 0-1 .167-1.667.5-2 3.25.083 5.917.167 8 .25h10.5c1.667-.083 3.083-.167 4.25-.25C25.708 7.083 30 13.625 37 23.875 44.083 34.042 53.917 47.917 66.5 65.5c.25-1.417.375-3.125.375-5.125V21.5c0-5.25-.292-8.917-.875-11-.167-.5-.917-.958-2.25-1.375a31.727 31.727 0 0 0-4.25-1c-1.5-.333-2.625-.5-3.375-.5-.333 0-.5-.5-.5-1.5 0-.917.167-1.542.5-1.875.75 0 2 .083 3.75.25 1.75.083 3.625.208 5.625.375 2.083.083 3.875.125 5.375.125 2.167 0 4.917-.125 8.25-.375 3.25-.25 5.167-.375 5.75-.375a7.75 7.75 0 0 1 .25 1.875c0 1-.167 1.5-.5 1.5-.5 0-1.542.167-3.125.5A59.137 59.137 0 0 0 77 9.25c-1.333.417-2.083.833-2.25 1.25-.333 1.333-.583 2.958-.75 4.875-.167 1.917-.25 4.167-.25 6.75v47.5c0 5.167.125 11 .375 17.5-.333.333-1.125.5-2.375.5ZM134 88c-.667 0-1-.667-1-2v-6.375c0-.417-.083-.625-.25-.625-5.5 5.917-10.958 8.875-16.375 8.875-3.917 0-7.042-1.125-9.375-3.375-2.25-2.333-3.875-5.25-4.875-8.75-.917-3.583-1.375-7.292-1.375-11.125v-15.75c0-3.167-.583-5.417-1.75-6.75-.833-1-1.833-1.667-3-2-1.083-.333-2.083-.5-3-.5-.833-.083-1.25-.208-1.25-.375 0-2 .25-3.042.75-3.125 4.417-.667 7.958-1.25 10.625-1.75 2.75-.583 4.333-.917 4.75-1l2.5-.625c.333-.083.542.25.625 1 .083.75.083 1.292 0 1.625-.5 4-.75 7.083-.75 9.25V61.5c0 6.417.958 11.167 2.875 14.25 1.917 3 5.042 4.5 9.375 4.5 1.667 0 3.292-.458 4.875-1.375 1.667-.917 3-2 4-3.25 1.083-1.333 1.625-2.458 1.625-3.375V48.875c0-3.167-.583-5.417-1.75-6.75-.833-1-1.833-1.667-3-2-1.083-.333-2.083-.542-3-.625-.833-.083-1.25-.167-1.25-.25 0-2 .25-3.042.75-3.125 4.417-.667 7.708-1.208 9.875-1.625 2.25-.417 4.042-.792 5.375-1.125l2.625-.625c.333-.083.542.25.625 1 .083.75.083 1.292 0 1.625-.5 4-.75 7-.75 9v25c0 3.75.292 6.917.875 9.5.25.833.917 1.375 2 1.625 1.083.167 2.333.333 3.75.5l1.625.125c.25.083.375.542.375 1.375 0 .25-.125.667-.375 1.25-.167.5-.375.75-.625.75-2.5.167-5.25.625-8.25 1.375-3 .667-5.25 1.292-6.75 1.875L134 88Zm-2.25-64c-1.583 0-3-.583-4.25-1.75-1.167-1.25-1.75-2.667-1.75-4.25 0-1.667.583-3.083 1.75-4.25 1.25-1.167 2.667-1.75 4.25-1.75 1.667 0 3.083.583 4.25 1.75 1.25 1.167 1.875 2.583 1.875 4.25 0 1.583-.625 3-1.875 4.25-1.167 1.167-2.583 1.75-4.25 1.75Zm-22.625 0c-1.583 0-3-.583-4.25-1.75C103.625 21 103 19.583 103 18c0-1.667.625-3.083 1.875-4.25 1.25-1.167 2.667-1.75 4.25-1.75 1.667 0 3.083.583 4.25 1.75 1.167 1.167 1.75 2.583 1.75 4.25 0 1.583-.583 3-1.75 4.25-1.167 1.167-2.583 1.75-4.25 1.75Zm61.75 63.875c-3.833 0-7-1-9.5-3-2.5-2.083-3.75-5.167-3.75-9.25 0-5 3.25-9.167 9.75-12.5 2.833-1.417 5.625-2.542 8.375-3.375a113.368 113.368 0 0 0 8.5-2.875c.75-.25 1.125-.875 1.125-1.875v-9.375c0-2.667-.833-4.708-2.5-6.125-1.667-1.5-3.667-2.25-6-2.25-2.5 0-4.583.875-6.25 2.625-1.667 1.667-2.5 3.875-2.5 6.625 0 2.917-1.708 4.375-5.125 4.375-2.417 0-4.042-.792-4.875-2.375 0-1.75.708-3.542 2.125-5.375 1.5-1.917 3.417-3.667 5.75-5.25A34.528 34.528 0 0 1 173.625 34c2.833-1 5.625-1.5 8.375-1.5 4.583 0 7.875 1.125 9.875 3.375 2 2.167 3 5.708 3 10.625v28.875c0 1.75.458 3.208 1.375 4.375.917 1.167 2.167 1.75 3.75 1.75 1.083 0 2.542-.583 4.375-1.75.333 0 .5.333.5 1 0 1.083-.208 1.958-.625 2.625-3.417 2.917-6.333 4.375-8.75 4.375-1.917 0-3.75-.792-5.5-2.375s-2.958-3.25-3.625-5c-.417.333-.958.792-1.625 1.375-.583.5-1.083.917-1.5 1.25a33.07 33.07 0 0 1-5.75 3.5c-2 .917-4.208 1.375-6.625 1.375Zm4.75-7.125c2.333 0 4.542-.667 6.625-2s3.125-2.75 3.125-4.25V61.625c-2.167.833-4.25 1.583-6.25 2.25A619.108 619.108 0 0 0 174.5 65.5c-1.5.583-2.958 1.625-4.375 3.125-1.333 1.5-2 3.208-2 5.125 0 2.5.75 4.292 2.25 5.375a9.094 9.094 0 0 0 5.25 1.625Zm138.625 6.875c-11.583 0-21.708-6-30.375-18a165.646 165.646 0 0 1-2.625-3.75c-1-1.583-2.875-4.375-5.625-8.375-1.333-1.917-2.542-3.5-3.625-4.75-1-1.333-2.208-2.333-3.625-3-1.333-.667-3.167-1-5.5-1-.917 0-1.667.125-2.25.375-.5.25-.75.833-.75 1.75V69.25c0 5.5.333 9.125 1 10.875.333.667 1.125 1.292 2.375 1.875a23.043 23.043 0 0 0 4.25 1.375c1.5.25 2.583.375 3.25.375.333 0 .5.583.5 1.75 0 .583-.083 1.208-.25 1.875a521.754 521.754 0 0 1-10.375-.5c-2.667-.167-4.625-.208-5.875-.125l-15.25.625c-.25-.25-.375-1-.375-2.25 0-1.083.125-1.625.375-1.625.833 0 1.833-.125 3-.375 1.25-.25 2.417-.542 3.5-.875 1.167-.417 1.875-.875 2.125-1.375.583-.917.875-4.833.875-11.75v-47.25c0-2.417-.083-4.542-.25-6.375-.083-1.833-.292-3.292-.625-4.375-.167-.5-.833-.958-2-1.375-1.083-.417-2.292-.75-3.625-1-1.25-.25-2.25-.375-3-.375-.333 0-.5-.5-.5-1.5 0-1.083.167-1.792.5-2.125l15 .25c2.417.083 5.375.042 8.875-.125 3.5-.25 6.417-.375 8.75-.375 4.5 0 8.792.875 12.875 2.625 4.167 1.75 7.542 4.333 10.125 7.75 2.667 3.417 4 7.583 4 12.5 0 3.5-1.333 7.167-4 11-2.583 3.833-6.125 6.792-10.625 8.875-.833.333-1.083.75-.75 1.25 4.083 8.667 8.875 16 14.375 22 8 8.75 14.5 13.125 19.5 13.125.25.5.375 1.083.375 1.75 0 .75-.125 1.375-.375 1.875-.833.25-1.958.375-3.375.375Zm-43.5-44.25h3.125c2 0 4.042-.667 6.125-2 2.167-1.333 3.958-3.208 5.375-5.625 1.5-2.417 2.25-5.208 2.25-8.375 0-11.583-5.833-17.375-17.5-17.375-3.833 0-6.75.292-8.75.875-.75.167-1.208 1.542-1.375 4.125-.083 2.5-.125 5.708-.125 9.625V39.75c0 2.417 3.625 3.625 10.875 3.625Zm75.875 44.375c-4.583 0-8.792-1.208-12.625-3.625s-6.917-5.625-9.25-9.625c-2.25-4.083-3.375-8.625-3.375-13.625 0-5.833 1.083-10.875 3.25-15.125s5.125-7.5 8.875-9.75c3.75-2.333 7.958-3.5 12.625-3.5 3.833 0 7.208.75 10.125 2.25 2.917 1.417 5.167 3.25 6.75 5.5 1.5 2.333 2.583 4.708 3.25 7.125.75 2.333 1.125 4.667 1.125 7 0 1.667-.25 2.708-.75 3.125-.5.333-1.458.5-2.875.5h-31.5c-.667 0-1 .208-1 .625 0 3.5.708 6.875 2.125 10.125 1.417 3.167 3.5 5.792 6.25 7.875s6.125 3.125 10.125 3.125c3.5 0 6.417-.5 8.75-1.5 2.417-1.083 4.167-2.042 5.25-2.875l.875-.625c.5 0 .75.542.75 1.625 0 .583-.25 1.333-.75 2.25-1.667 2.333-4.125 4.458-7.375 6.375-3.25 1.833-6.792 2.75-10.625 2.75Zm-14.375-35h24.375c.417 0 .625-.417.625-1.25 0-1.833-.5-3.833-1.5-6-.917-2.25-2.333-4.208-4.25-5.875-1.917-1.667-4.333-2.5-7.25-2.5-2.667 0-4.958.917-6.875 2.75C335.458 41.625 334 43.667 333 46c-1 2.25-1.5 4.208-1.5 5.875 0 .583.25.875.75.875Zm40.625 34.625c-.333-.333-.5-1.042-.5-2.125 0-1 .167-1.5.5-1.5.667 0 1.583-.125 2.75-.375s2.25-.583 3.25-1c1-.417 1.542-.792 1.625-1.125.333-1.167.542-2.5.625-4 .167-1.5.25-3.083.25-4.75V18.375c0-2.833-.25-5.5-.75-8-.333-1.333-2.458-2-6.375-2h-1.125c-.5 0-.75-.458-.75-1.375 0-1.333.25-2 .75-2 5-.583 8.708-1.25 11.125-2s4.083-1.417 5-2l1.25-.75h.25c.333 0 .667.25 1 .75.333.417.542.833.625 1.25C391.458 5 391 8.625 391 13.125v57c0 2.417.083 4.542.25 6.375.167 1.833.417 3.417.75 4.75.167.333.75.708 1.75 1.125 1 .417 2.083.75 3.25 1 1.167.25 2 .375 2.5.375.25 0 .417.5.5 1.5.083 1 .042 1.708-.125 2.125L386.5 86.75l-13.625.625Zm47.125.5c-3.833 0-7-1-9.5-3-2.5-2.083-3.75-5.167-3.75-9.25 0-5 3.25-9.167 9.75-12.5 2.833-1.417 5.625-2.542 8.375-3.375a113.368 113.368 0 0 0 8.5-2.875c.75-.25 1.125-.875 1.125-1.875v-9.375c0-2.667-.833-4.708-2.5-6.125-1.667-1.5-3.667-2.25-6-2.25-2.5 0-4.583.875-6.25 2.625-1.667 1.667-2.5 3.875-2.5 6.625 0 2.917-1.708 4.375-5.125 4.375-2.417 0-4.042-.792-4.875-2.375 0-1.75.708-3.542 2.125-5.375 1.5-1.917 3.417-3.667 5.75-5.25A34.528 34.528 0 0 1 422.75 34c2.833-1 5.625-1.5 8.375-1.5 4.583 0 7.875 1.125 9.875 3.375 2 2.167 3 5.708 3 10.625v28.875c0 1.75.458 3.208 1.375 4.375.917 1.167 2.167 1.75 3.75 1.75 1.083 0 2.542-.583 4.375-1.75.333 0 .5.333.5 1 0 1.083-.208 1.958-.625 2.625-3.417 2.917-6.333 4.375-8.75 4.375-1.917 0-3.75-.792-5.5-2.375s-2.958-3.25-3.625-5c-.417.333-.958.792-1.625 1.375-.583.5-1.083.917-1.5 1.25a33.07 33.07 0 0 1-5.75 3.5c-2 .917-4.208 1.375-6.625 1.375Zm4.75-7.125c2.333 0 4.542-.667 6.625-2S434.5 76 434.5 74.5V61.625c-2.167.833-4.25 1.583-6.25 2.25a619.108 619.108 0 0 0-4.625 1.625c-1.5.583-2.958 1.625-4.375 3.125-1.333 1.5-2 3.208-2 5.125 0 2.5.75 4.292 2.25 5.375a9.094 9.094 0 0 0 5.25 1.625Zm30.75 6.625a12.014 12.014 0 0 0-.25-.875v-.875c0-1.25.167-1.875.5-1.875 5.667-.917 9.417-2.667 11.25-5.25l12.625-16.875c.333-.583.5-.958.5-1.125 0-.333-.125-.667-.375-1L467 40.75c-.5-.75-1.375-1.458-2.625-2.125a21.154 21.154 0 0 0-4-1.625c-1.417-.417-2.625-.625-3.625-.625-.25-.667-.375-1.25-.375-1.75 0-.75.167-1.375.5-1.875l12.5.625 13.125-.625c.083.25.125.75.125 1.5 0 1.417-.125 2.125-.375 2.125-3.333 0-5 .708-5 2.125 0 .333.208.833.625 1.5L486 52.625c1.167-1.917 2.208-3.542 3.125-4.875 1-1.333 1.792-2.417 2.375-3.25.667-1 1.292-2.083 1.875-3.25.583-1.167.875-2.042.875-2.625 0-.833-.458-1.375-1.375-1.625s-1.917-.375-3-.375c-1.083-.083-1.875-.167-2.375-.25-.25-.167-.375-.833-.375-2 0-.75.125-1.292.375-1.625l13.125.625L512 32.75c.083.417.125.792.125 1.125.083.25.125.458.125.625 0 1.25-.125 1.875-.375 1.875-5.583.667-9.208 2.083-10.875 4.25l-11.5 15c-.5.583-.75 1.125-.75 1.625s.167.958.5 1.375L502.5 78.25c2.167 3.25 5.667 5.083 10.5 5.5.25 0 .375.583.375 1.75 0 .917-.167 1.542-.5 1.875l-11.75-.625-13.875.625a8.646 8.646 0 0 0-.25-1v-.625c0-1.333.125-2 .375-2 3.5-.25 5.25-1 5.25-2.25 0-.25-.083-.5-.25-.75l-9.5-15-8.625 12.875c-.583.833-.875 1.625-.875 2.375s.625 1.417 1.875 2c1.25.5 2.708.75 4.375.75h.625c.25 0 .375.625.375 1.875 0 .833-.167 1.417-.5 1.75l-12.5-.625-12.125.625Z"/></svg>