<svg xmlns="http://www.w3.org/2000/svg" viewBox="0 13.569999694824219 200.33999633789062 34.279998779296875" data-asc="0.94921875" width="200.33999633789062" height="34.279998779296875"><defs/><g fill="#ffffff"><g transform="translate(0, 0)"><path d="M27.83 47.71Q27.05 47.71 26.22 46.58L7.28 19.73L7.28 40.58Q7.28 43.90 7.62 45.12Q7.71 45.31 8.47 45.58Q9.23 45.85 10.11 46.02Q10.99 46.19 11.28 46.19Q11.43 46.19 11.45 46.78Q11.47 47.36 11.38 47.61Q8.94 47.51 7.54 47.44Q6.15 47.36 5.76 47.36L0.15 47.61Q0 47.46 0 46.88Q0 46.19 0.15 46.19Q0.63 46.19 1.51 46.02Q2.39 45.85 3.17 45.58Q3.96 45.31 4.05 45.02Q4.54 43.85 4.54 40.43L4.54 21.24Q4.54 18.75 4.20 17.58Q4.10 17.29 3.34 17.07Q2.59 16.85 1.71 16.70Q0.83 16.55 0.34 16.55Q0.15 16.55 0.15 15.92Q0.15 15.33 0.34 15.14Q2.25 15.19 3.49 15.21Q4.74 15.23 5.32 15.23Q6.59 15.23 7.57 15.21Q8.54 15.19 9.23 15.14Q10.16 16.80 14.28 22.78Q18.41 28.76 25.78 39.06Q25.93 38.23 25.93 37.06L25.93 21.88Q25.93 18.80 25.59 17.58Q25.49 17.29 24.71 17.04Q23.93 16.80 23.05 16.63Q22.17 16.46 21.73 16.46Q21.53 16.46 21.53 15.87Q21.53 15.33 21.73 15.14Q22.17 15.14 23.19 15.21Q24.22 15.28 25.42 15.36Q26.61 15.43 27.49 15.43Q28.76 15.43 30.71 15.28Q32.62 15.14 32.96 15.14Q33.06 15.53 33.06 15.87Q33.06 16.46 32.86 16.46Q32.57 16.46 31.64 16.65Q30.71 16.85 29.91 17.09Q29.10 17.33 29.00 17.58Q28.81 18.36 28.71 19.48Q28.61 20.61 28.61 22.12L28.61 40.67Q28.61 43.70 28.76 47.51Q28.56 47.71 27.83 47.71ZM52.15 47.85Q51.76 47.85 51.76 47.07L51.76 44.58Q51.76 44.34 51.66 44.34Q48.44 47.80 45.26 47.80Q42.97 47.80 41.63 46.46Q40.28 45.12 39.72 43.04Q39.16 40.97 39.16 38.72L39.16 32.57Q39.16 30.71 38.48 29.93Q37.99 29.35 37.33 29.15Q36.67 28.96 36.16 28.93Q35.64 28.91 35.64 28.81Q35.64 27.64 35.94 27.59Q38.53 27.20 40.11 26.88Q41.70 26.56 41.94 26.51L42.92 26.27Q43.12 26.22 43.16 26.66Q43.21 27.10 43.16 27.29Q42.87 29.64 42.87 30.91L42.87 37.50Q42.87 41.26 43.99 43.04Q45.12 44.82 47.66 44.82Q48.63 44.82 49.58 44.29Q50.54 43.75 51.15 42.99Q51.76 42.24 51.76 41.70L51.76 32.57Q51.76 30.71 51.07 29.93Q50.59 29.35 49.93 29.15Q49.27 28.96 48.75 28.91Q48.24 28.86 48.24 28.81Q48.24 27.64 48.54 27.59Q51.12 27.20 52.42 26.95Q53.71 26.71 54.49 26.51L55.52 26.27Q55.71 26.22 55.76 26.66Q55.81 27.10 55.76 27.29Q55.47 29.64 55.47 30.81L55.47 40.58Q55.47 42.77 55.81 44.29Q55.96 44.78 56.59 44.90Q57.23 45.02 58.06 45.12L58.69 45.17Q58.84 45.21 58.84 45.70Q58.84 45.85 58.72 46.17Q58.59 46.48 58.45 46.48Q56.98 46.58 55.22 47.00Q53.47 47.41 52.59 47.75L52.15 47.85M51.27 22.85Q50.34 22.85 49.63 22.14Q48.93 21.44 48.93 20.51Q48.93 19.53 49.63 18.85Q50.34 18.16 51.27 18.16Q52.25 18.16 52.95 18.85Q53.66 19.53 53.66 20.51Q53.66 21.44 52.95 22.14Q52.25 22.85 51.27 22.85M42.43 22.85Q41.50 22.85 40.77 22.14Q40.04 21.44 40.04 20.51Q40.04 19.53 40.77 18.85Q41.50 18.16 42.43 18.16Q43.41 18.16 44.09 18.85Q44.78 19.53 44.78 20.51Q44.78 21.44 44.09 22.14Q43.41 22.85 42.43 22.85ZM66.55 47.80Q64.31 47.80 62.84 46.61Q61.38 45.41 61.38 43.02Q61.38 40.09 65.19 38.13Q66.85 37.30 68.48 36.82Q70.12 36.33 71.78 35.69Q72.22 35.55 72.22 34.96L72.22 31.30Q72.22 29.74 71.24 28.88Q70.26 28.03 68.90 28.03Q67.43 28.03 66.46 29.03Q65.48 30.03 65.48 31.64Q65.48 33.35 63.48 33.35Q62.06 33.35 61.57 32.42Q61.57 31.40 62.43 30.30Q63.28 29.20 64.65 28.27Q66.02 27.34 67.65 26.76Q69.29 26.17 70.90 26.17Q73.58 26.17 74.76 27.47Q75.93 28.76 75.93 31.64L75.93 42.92Q75.93 43.95 76.46 44.63Q77.00 45.31 77.93 45.31Q78.56 45.31 79.64 44.63Q79.83 44.63 79.83 45.02Q79.83 45.65 79.59 46.04Q77.59 47.75 76.17 47.75Q75.05 47.75 74.02 46.83Q73.00 45.90 72.61 44.87Q72.36 45.07 72.00 45.39Q71.63 45.70 71.39 45.90Q70.36 46.68 69.17 47.24Q67.97 47.80 66.55 47.80M68.41 45.02Q69.78 45.02 71.00 44.24Q72.22 43.46 72.22 42.58L72.22 37.55Q70.95 38.04 69.80 38.43Q68.65 38.82 67.97 39.06Q67.09 39.40 66.28 40.28Q65.48 41.16 65.48 42.29Q65.48 43.75 66.38 44.38Q67.29 45.02 68.41 45.02ZM122.56 47.71Q115.77 47.71 110.69 40.67Q110.30 40.14 109.69 39.21Q109.08 38.28 107.47 35.94Q106.69 34.81 106.08 34.06Q105.47 33.30 104.66 32.91Q103.86 32.52 102.49 32.52Q101.95 32.52 101.64 32.67Q101.32 32.81 101.32 33.35L101.32 40.53Q101.32 43.75 101.71 44.78Q101.90 45.17 102.66 45.51Q103.42 45.85 104.30 46.02Q105.18 46.19 105.57 46.19Q105.76 46.19 105.76 46.88Q105.76 47.22 105.66 47.61Q103.22 47.51 101.64 47.41Q100.05 47.31 99.32 47.36L93.36 47.61Q93.21 47.46 93.21 46.73Q93.21 46.09 93.36 46.09Q93.85 46.09 94.56 45.95Q95.26 45.80 95.92 45.58Q96.58 45.36 96.73 45.07Q97.07 44.53 97.07 40.48L97.07 22.02Q97.07 20.61 97.00 19.53Q96.92 18.46 96.73 17.82Q96.63 17.53 95.97 17.29Q95.31 17.04 94.56 16.89Q93.80 16.75 93.36 16.75Q93.16 16.75 93.16 16.16Q93.16 15.53 93.36 15.33L99.22 15.43Q100.63 15.48 102.69 15.36Q104.74 15.23 106.10 15.23Q108.74 15.23 111.16 16.26Q113.57 17.29 115.11 19.29Q116.65 21.29 116.65 24.17Q116.65 26.22 115.11 28.47Q113.57 30.71 110.94 31.93Q110.45 32.13 110.64 32.42Q113.04 37.50 116.26 41.02Q120.95 46.14 123.88 46.14Q124.02 46.44 124.02 46.83Q124.02 47.27 123.88 47.56Q123.39 47.71 122.56 47.71M105.57 30.42L106.79 30.42Q107.96 30.42 109.20 29.64Q110.45 28.86 111.30 27.44Q112.16 26.03 112.16 24.17Q112.16 17.38 105.32 17.38Q103.08 17.38 101.90 17.72Q101.46 17.82 101.39 19.31Q101.32 20.80 101.32 23.10L101.32 29.00Q101.32 30.42 105.57 30.42ZM135.21 47.75Q132.52 47.75 130.27 46.34Q128.03 44.92 126.68 42.55Q125.34 40.19 125.34 37.26Q125.34 33.84 126.61 31.35Q127.88 28.86 130.08 27.51Q132.28 26.17 135.01 26.17Q137.26 26.17 138.96 27.03Q140.67 27.88 141.60 29.20Q142.48 30.57 142.90 31.96Q143.31 33.35 143.31 34.72Q143.31 35.69 143.02 35.91Q142.72 36.13 141.89 36.13L129.59 36.13Q129.20 36.13 129.20 36.38Q129.20 38.43 130.03 40.31Q130.86 42.19 132.47 43.41Q134.08 44.63 136.43 44.63Q138.48 44.63 139.87 44.02Q141.26 43.41 141.89 42.92L142.24 42.68Q142.53 42.68 142.53 43.31Q142.53 43.65 142.24 44.19Q141.26 45.56 139.36 46.66Q137.45 47.75 135.21 47.75M129.59 34.08L139.11 34.08Q139.36 34.08 139.36 33.59Q139.36 32.52 138.79 31.23Q138.23 29.93 137.11 28.96Q135.99 27.98 134.28 27.98Q132.71 27.98 131.59 29.03Q130.47 30.08 129.88 31.42Q129.30 32.76 129.30 33.74Q129.30 34.08 129.59 34.08ZM145.46 47.61Q145.26 47.41 145.26 46.78Q145.26 46.19 145.46 46.19Q145.85 46.19 146.53 46.04Q147.22 45.90 147.80 45.65Q148.39 45.41 148.44 45.21Q148.63 44.53 148.71 43.65Q148.78 42.77 148.78 41.80L148.78 20.65Q148.78 18.99 148.49 17.53Q148.29 16.75 146.00 16.75L145.56 16.75Q145.26 16.75 145.26 16.21Q145.26 15.43 145.56 15.43Q148.49 15.09 149.90 14.65Q151.32 14.21 151.86 13.87L152.34 13.57L152.44 13.57Q152.64 13.57 152.83 13.84Q153.03 14.11 153.08 14.36Q152.54 15.97 152.54 18.60L152.54 40.87Q152.54 42.29 152.64 43.36Q152.73 44.43 152.93 45.21Q153.03 45.41 153.61 45.65Q154.20 45.90 154.88 46.04Q155.57 46.19 155.86 46.19Q156.01 46.19 156.05 46.78Q156.10 47.36 156.01 47.61L150.78 47.36L145.46 47.61ZM163.87 47.80Q161.62 47.80 160.16 46.61Q158.69 45.41 158.69 43.02Q158.69 40.09 162.50 38.13Q164.16 37.30 165.80 36.82Q167.43 36.33 169.09 35.69Q169.53 35.55 169.53 34.96L169.53 31.30Q169.53 29.74 168.55 28.88Q167.58 28.03 166.21 28.03Q164.75 28.03 163.77 29.03Q162.79 30.03 162.79 31.64Q162.79 33.35 160.79 33.35Q159.38 33.35 158.89 32.42Q158.89 31.40 159.74 30.30Q160.60 29.20 161.96 28.27Q163.33 27.34 164.97 26.76Q166.60 26.17 168.21 26.17Q170.90 26.17 172.07 27.47Q173.24 28.76 173.24 31.64L173.24 42.92Q173.24 43.95 173.78 44.63Q174.32 45.31 175.24 45.31Q175.88 45.31 176.95 44.63Q177.15 44.63 177.15 45.02Q177.15 45.65 176.90 46.04Q174.90 47.75 173.49 47.75Q172.36 47.75 171.34 46.83Q170.31 45.90 169.92 44.87Q169.68 45.07 169.31 45.39Q168.95 45.70 168.70 45.90Q167.68 46.68 166.48 47.24Q165.28 47.80 163.87 47.80M165.72 45.02Q167.09 45.02 168.31 44.24Q169.53 43.46 169.53 42.58L169.53 37.55Q168.26 38.04 167.11 38.43Q165.97 38.82 165.28 39.06Q164.40 39.40 163.60 40.28Q162.79 41.16 162.79 42.29Q162.79 43.75 163.70 44.38Q164.60 45.02 165.72 45.02ZM177.73 47.61Q177.69 47.41 177.66 47.24Q177.64 47.07 177.64 46.92Q177.64 46.19 177.83 46.19Q181.15 45.65 182.23 44.14L187.16 37.55Q187.35 37.21 187.35 37.11Q187.35 36.91 187.21 36.72L182.23 29.39Q181.93 28.96 181.20 28.56Q180.47 28.17 179.64 27.93Q178.81 27.69 178.22 27.69Q178.08 27.29 178.08 27.00Q178.08 26.56 178.27 26.27L183.15 26.51L188.28 26.27Q188.33 26.42 188.33 26.86Q188.33 27.69 188.18 27.69Q186.23 27.69 186.23 28.52Q186.23 28.71 186.47 29.10L189.65 34.03Q190.33 32.91 190.89 32.13Q191.46 31.35 191.80 30.86Q192.19 30.27 192.53 29.59Q192.87 28.91 192.87 28.56Q192.87 28.08 192.33 27.93Q191.80 27.78 191.16 27.76Q190.53 27.73 190.23 27.69Q190.09 27.59 190.09 26.90Q190.09 26.46 190.23 26.27L195.36 26.51L199.80 26.27Q199.85 26.51 199.88 26.68Q199.90 26.86 199.90 26.95Q199.90 27.69 199.76 27.69Q196.48 28.08 195.51 29.35L191.02 35.21Q190.72 35.55 190.72 35.84Q190.72 36.13 190.92 36.38L196.09 44.04Q197.36 45.95 200.20 46.19Q200.34 46.19 200.34 46.88Q200.34 47.41 200.15 47.61L195.56 47.36L190.14 47.61Q190.09 47.36 190.06 47.19Q190.04 47.02 190.04 46.97Q190.04 46.19 190.19 46.19Q192.24 46.04 192.24 45.31Q192.24 45.17 192.14 45.02L188.43 39.16L185.06 44.19Q184.72 44.68 184.72 45.12Q184.72 45.56 185.45 45.87Q186.18 46.19 187.16 46.19L187.40 46.19Q187.55 46.19 187.55 46.92Q187.55 47.41 187.35 47.61L182.47 47.36L177.73 47.61Z"/></g></g></svg>